{
	"asset":{
		"generator":"Khronos glTF Blender I/O v3.5.30",
		"version":"2.0"
	},
	"scene":0,
	"scenes":[
		{
			"name":"Scene",
			"nodes":[
				0,
				1,
				2
			]
		}
	],
	"nodes":[
		{
			"mesh":0,
			"name":"Low_KR8",
			"rotation":[
				0.7071068286895752,
				0,
				0,
				0.7071068286895752
			],
			"scale":[
				0.02452230453491211,
				0.02452230453491211,
				0.02452230453491211
			],
			"translation":[
				-7.119538307189941,
				0,
				-12.094080924987793
			]
		},
		{
			"mesh":1,
			"name":"Low_KR8.001",
			"rotation":[
				0.7025529742240906,
				-0.08012031018733978,
				0.08012031018733978,
				0.7025530934333801
			],
			"scale":[
				0.018955305218696594,
				0.018955305218696594,
				0.018955305218696594
			],
			"translation":[
				-3.1731455326080322,
				0,
				-11.71750259399414
			]
		},
		{
			"mesh":2,
			"name":"Low_KR8.002",
			"rotation":[
				0.6895824670791626,
				0.156448096036911,
				-0.15644808113574982,
				0.6895825862884521
			],
			"scale":[
				0.013462266884744167,
				0.013462266884744167,
				0.013462267816066742
			],
			"translation":[
				-4.570133209228516,
				0,
				-14.584381103515625
			]
		}
	],
	"animations":[
		{
			"channels":[
				{
					"sampler":0,
					"target":{
						"node":0,
						"path":"translation"
					}
				},
				{
					"sampler":1,
					"target":{
						"node":0,
						"path":"rotation"
					}
				},
				{
					"sampler":2,
					"target":{
						"node":0,
						"path":"scale"
					}
				}
			],
			"name":"Low_KR8",
			"samplers":[
				{
					"input":10,
					"interpolation":"LINEAR",
					"output":11
				},
				{
					"input":10,
					"interpolation":"LINEAR",
					"output":12
				},
				{
					"input":10,
					"interpolation":"LINEAR",
					"output":13
				}
			]
		},
		{
			"channels":[
				{
					"sampler":0,
					"target":{
						"node":1,
						"path":"translation"
					}
				},
				{
					"sampler":1,
					"target":{
						"node":1,
						"path":"rotation"
					}
				},
				{
					"sampler":2,
					"target":{
						"node":1,
						"path":"scale"
					}
				}
			],
			"name":"Low_KR8.001",
			"samplers":[
				{
					"input":10,
					"interpolation":"LINEAR",
					"output":14
				},
				{
					"input":10,
					"interpolation":"LINEAR",
					"output":15
				},
				{
					"input":10,
					"interpolation":"LINEAR",
					"output":16
				}
			]
		},
		{
			"channels":[
				{
					"sampler":0,
					"target":{
						"node":2,
						"path":"translation"
					}
				},
				{
					"sampler":1,
					"target":{
						"node":2,
						"path":"rotation"
					}
				},
				{
					"sampler":2,
					"target":{
						"node":2,
						"path":"scale"
					}
				}
			],
			"name":"Low_KR8.002",
			"samplers":[
				{
					"input":10,
					"interpolation":"LINEAR",
					"output":17
				},
				{
					"input":10,
					"interpolation":"LINEAR",
					"output":18
				},
				{
					"input":10,
					"interpolation":"LINEAR",
					"output":19
				}
			]
		}
	],
	"materials":[
		{
			"doubleSided":true,
			"name":"Crate",
			"normalTexture":{
				"index":0
			},
			"pbrMetallicRoughness":{
				"baseColorTexture":{
					"index":1
				},
				"metallicFactor":0,
				"roughnessFactor":0.5527864098548889
			}
		}
	],
	"meshes":[
		{
			"name":"Mesh",
			"primitives":[
				{
					"attributes":{
						"POSITION":0,
						"TEXCOORD_0":1,
						"NORMAL":2
					},
					"indices":3,
					"material":0
				}
			]
		},
		{
			"name":"Mesh.003",
			"primitives":[
				{
					"attributes":{
						"POSITION":4,
						"TEXCOORD_0":5,
						"NORMAL":6
					},
					"indices":3,
					"material":0
				}
			]
		},
		{
			"name":"Mesh.004",
			"primitives":[
				{
					"attributes":{
						"POSITION":7,
						"TEXCOORD_0":8,
						"NORMAL":9
					},
					"indices":3,
					"material":0
				}
			]
		}
	],
	"textures":[
		{
			"sampler":0,
			"source":0
		},
		{
			"sampler":0,
			"source":1
		}
	],
	"images":[
		{
			"bufferView":4,
			"mimeType":"image/png",
			"name":"normal_map.als.tga"
		},
		{
			"bufferView":5,
			"mimeType":"image/png",
			"name":"Ambient_crate_map.als.tga"
		}
	],
	"accessors":[
		{
			"bufferView":0,
			"componentType":5126,
			"count":1128,
			"max":[
				51.55889892578125,
				51.592098236083984,
				-0.9882240295410156
			],
			"min":[
				-51.55889892578125,
				-51.592098236083984,
				-112.98102569580078
			],
			"type":"VEC3"
		},
		{
			"bufferView":1,
			"componentType":5126,
			"count":1128,
			"type":"VEC2"
		},
		{
			"bufferView":2,
			"componentType":5126,
			"count":1128,
			"type":"VEC3"
		},
		{
			"bufferView":3,
			"componentType":5123,
			"count":1788,
			"type":"SCALAR"
		},
		{
			"bufferView":6,
			"componentType":5126,
			"count":1128,
			"max":[
				51.55889892578125,
				51.592098236083984,
				-0.9882240295410156
			],
			"min":[
				-51.55889892578125,
				-51.592098236083984,
				-112.98102569580078
			],
			"type":"VEC3"
		},
		{
			"bufferView":7,
			"componentType":5126,
			"count":1128,
			"type":"VEC2"
		},
		{
			"bufferView":8,
			"componentType":5126,
			"count":1128,
			"type":"VEC3"
		},
		{
			"bufferView":9,
			"componentType":5126,
			"count":1128,
			"max":[
				51.55889892578125,
				51.592098236083984,
				-0.9882240295410156
			],
			"min":[
				-51.55889892578125,
				-51.592098236083984,
				-112.98102569580078
			],
			"type":"VEC3"
		},
		{
			"bufferView":10,
			"componentType":5126,
			"count":1128,
			"type":"VEC2"
		},
		{
			"bufferView":11,
			"componentType":5126,
			"count":1128,
			"type":"VEC3"
		},
		{
			"bufferView":12,
			"componentType":5126,
			"count":2,
			"max":[
				0.06666666666666667
			],
			"min":[
				0.03333333333333333
			],
			"type":"SCALAR"
		},
		{
			"bufferView":13,
			"componentType":5126,
			"count":2,
			"type":"VEC3"
		},
		{
			"bufferView":14,
			"componentType":5126,
			"count":2,
			"type":"VEC4"
		},
		{
			"bufferView":15,
			"componentType":5126,
			"count":2,
			"type":"VEC3"
		},
		{
			"bufferView":16,
			"componentType":5126,
			"count":2,
			"type":"VEC3"
		},
		{
			"bufferView":17,
			"componentType":5126,
			"count":2,
			"type":"VEC4"
		},
		{
			"bufferView":18,
			"componentType":5126,
			"count":2,
			"type":"VEC3"
		},
		{
			"bufferView":19,
			"componentType":5126,
			"count":2,
			"type":"VEC3"
		},
		{
			"bufferView":20,
			"componentType":5126,
			"count":2,
			"type":"VEC4"
		},
		{
			"bufferView":21,
			"componentType":5126,
			"count":2,
			"type":"VEC3"
		}
	],
	"bufferViews":[
		{
			"buffer":0,
			"byteLength":13536,
			"byteOffset":0,
			"target":34962
		},
		{
			"buffer":0,
			"byteLength":9024,
			"byteOffset":13536,
			"target":34962
		},
		{
			"buffer":0,
			"byteLength":13536,
			"byteOffset":22560,
			"target":34962
		},
		{
			"buffer":0,
			"byteLength":3576,
			"byteOffset":36096,
			"target":34963
		},
		{
			"buffer":0,
			"byteLength":285478,
			"byteOffset":39672
		},
		{
			"buffer":0,
			"byteLength":722957,
			"byteOffset":325152
		},
		{
			"buffer":0,
			"byteLength":13536,
			"byteOffset":1048112,
			"target":34962
		},
		{
			"buffer":0,
			"byteLength":9024,
			"byteOffset":1061648,
			"target":34962
		},
		{
			"buffer":0,
			"byteLength":13536,
			"byteOffset":1070672,
			"target":34962
		},
		{
			"buffer":0,
			"byteLength":13536,
			"byteOffset":1084208,
			"target":34962
		},
		{
			"buffer":0,
			"byteLength":9024,
			"byteOffset":1097744,
			"target":34962
		},
		{
			"buffer":0,
			"byteLength":13536,
			"byteOffset":1106768,
			"target":34962
		},
		{
			"buffer":0,
			"byteLength":8,
			"byteOffset":1120304
		},
		{
			"buffer":0,
			"byteLength":24,
			"byteOffset":1120312
		},
		{
			"buffer":0,
			"byteLength":32,
			"byteOffset":1120336
		},
		{
			"buffer":0,
			"byteLength":24,
			"byteOffset":1120368
		},
		{
			"buffer":0,
			"byteLength":24,
			"byteOffset":1120392
		},
		{
			"buffer":0,
			"byteLength":32,
			"byteOffset":1120416
		},
		{
			"buffer":0,
			"byteLength":24,
			"byteOffset":1120448
		},
		{
			"buffer":0,
			"byteLength":24,
			"byteOffset":1120472
		},
		{
			"buffer":0,
			"byteLength":32,
			"byteOffset":1120496
		},
		{
			"buffer":0,
			"byteLength":24,
			"byteOffset":1120528
		}
	],
	"samplers":[
		{
			"magFilter":9729,
			"minFilter":9987
		}
	],
	"buffers":[
		{
			"byteLength":1120552,
			"uri":"data:application/octet-stream;base64,"
		}
	]
}
