{
	"asset":{
		"generator":"Khronos glTF Blender I/O v3.5.30",
		"version":"2.0"
	},
	"scene":0,
	"scenes":[
		{
			"name":"Scene",
			"nodes":[
				0,
				1,
				2,
				3,
				4,
				5,
				6,
				7,
				8,
				9,
				10
			]
		}
	],
	"nodes":[
		{
			"mesh":0,
			"name":"Plane",
			"scale":[
				5.960414409637451,
				1,
				5.960414409637451
			],
			"translation":[
				-20.424449920654297,
				0,
				62.675865173339844
			]
		},
		{
			"mesh":1,
			"name":"Plane.001",
			"rotation":[
				0,
				0.2806326448917389,
				0,
				0.959815263748169
			],
			"scale":[
				5.355757236480713,
				0.8985544443130493,
				5.355757236480713
			],
			"translation":[
				18.142473220825195,
				-0.35409000515937805,
				50.840328216552734
			]
		},
		{
			"mesh":2,
			"name":"Plane.002",
			"rotation":[
				0,
				-0.8244911432266235,
				0,
				0.5658748745918274
			],
			"scale":[
				5.960414409637451,
				1,
				5.960414409637451
			],
			"translation":[
				56.90372848510742,
				0,
				-17.355621337890625
			]
		},
		{
			"mesh":3,
			"name":"Plane.003",
			"rotation":[
				0,
				-0.632556140422821,
				0,
				0.7745145559310913
			],
			"scale":[
				5.355757236480713,
				0.8985544443130493,
				5.355757236480713
			],
			"translation":[
				54.08012008666992,
				-0.35408973693847656,
				22.8875732421875
			]
		},
		{
			"mesh":4,
			"name":"Plane.004",
			"rotation":[
				0,
				-0.8244911432266235,
				0,
				0.5658748745918274
			],
			"scale":[
				5.960414409637451,
				1,
				5.960414409637451
			],
			"translation":[
				19.271106719970703,
				0,
				-57.332496643066406
			]
		},
		{
			"mesh":5,
			"name":"Plane.005",
			"rotation":[
				0,
				-0.8244912028312683,
				0,
				0.5658749341964722
			],
			"scale":[
				8.846395492553711,
				1.4841911792755127,
				8.846395492553711
			],
			"translation":[
				-36.46017074584961,
				0,
				-56.036529541015625
			]
		},
		{
			"mesh":6,
			"name":"Plane.006",
			"rotation":[
				0,
				-0.8244911432266235,
				0,
				0.5658748745918274
			],
			"scale":[
				4.657130241394043,
				0.781343400478363,
				4.657130241394043
			],
			"translation":[
				-54.61191177368164,
				0,
				2.794339656829834
			]
		},
		{
			"mesh":7,
			"name":"Plane.007",
			"rotation":[
				0,
				-0.3603512644767761,
				0,
				0.9328166842460632
			],
			"scale":[
				4.657130241394043,
				0.781343400478363,
				4.657130241394043
			],
			"translation":[
				-53.802947998046875,
				0,
				18.356979370117188
			]
		},
		{
			"mesh":8,
			"name":"Plane.008",
			"rotation":[
				0,
				-0.8244911432266235,
				0,
				0.5658748745918274
			],
			"scale":[
				1.4618422985076904,
				0.24525845050811768,
				1.4618422985076904
			],
			"translation":[
				33.71947479248047,
				0,
				-16.261564254760742
			]
		},
		{
			"mesh":9,
			"name":"Plane.009",
			"rotation":[
				0,
				0.9955719113349915,
				0,
				0.09400324523448944
			],
			"scale":[
				1.5499653816223145,
				0.2600431740283966,
				1.5499653816223145
			],
			"translation":[
				33.363059997558594,
				0,
				-4.392102241516113
			]
		},
		{
			"mesh":10,
			"name":"Plane.010",
			"rotation":[
				0,
				-0.9378363490104675,
				0,
				0.34707775712013245
			],
			"scale":[
				2.0504260063171387,
				0.3440071940422058,
				2.0504260063171387
			],
			"translation":[
				-22.25177764892578,
				0,
				-37.07757568359375
			]
		}
	],
	"animations":[
		{
			"channels":[
				{
					"sampler":0,
					"target":{
						"node":0,
						"path":"translation"
					}
				},
				{
					"sampler":1,
					"target":{
						"node":0,
						"path":"rotation"
					}
				},
				{
					"sampler":2,
					"target":{
						"node":0,
						"path":"scale"
					}
				}
			],
			"name":"Plane",
			"samplers":[
				{
					"input":34,
					"interpolation":"LINEAR",
					"output":35
				},
				{
					"input":34,
					"interpolation":"LINEAR",
					"output":36
				},
				{
					"input":34,
					"interpolation":"LINEAR",
					"output":37
				}
			]
		},
		{
			"channels":[
				{
					"sampler":0,
					"target":{
						"node":1,
						"path":"translation"
					}
				},
				{
					"sampler":1,
					"target":{
						"node":1,
						"path":"rotation"
					}
				},
				{
					"sampler":2,
					"target":{
						"node":1,
						"path":"scale"
					}
				}
			],
			"name":"Plane.001",
			"samplers":[
				{
					"input":34,
					"interpolation":"LINEAR",
					"output":38
				},
				{
					"input":34,
					"interpolation":"LINEAR",
					"output":39
				},
				{
					"input":34,
					"interpolation":"LINEAR",
					"output":40
				}
			]
		},
		{
			"channels":[
				{
					"sampler":0,
					"target":{
						"node":2,
						"path":"translation"
					}
				},
				{
					"sampler":1,
					"target":{
						"node":2,
						"path":"rotation"
					}
				},
				{
					"sampler":2,
					"target":{
						"node":2,
						"path":"scale"
					}
				}
			],
			"name":"Plane.002",
			"samplers":[
				{
					"input":34,
					"interpolation":"LINEAR",
					"output":41
				},
				{
					"input":34,
					"interpolation":"LINEAR",
					"output":42
				},
				{
					"input":34,
					"interpolation":"LINEAR",
					"output":43
				}
			]
		},
		{
			"channels":[
				{
					"sampler":0,
					"target":{
						"node":3,
						"path":"translation"
					}
				},
				{
					"sampler":1,
					"target":{
						"node":3,
						"path":"rotation"
					}
				},
				{
					"sampler":2,
					"target":{
						"node":3,
						"path":"scale"
					}
				}
			],
			"name":"Plane.003",
			"samplers":[
				{
					"input":34,
					"interpolation":"LINEAR",
					"output":44
				},
				{
					"input":34,
					"interpolation":"LINEAR",
					"output":45
				},
				{
					"input":34,
					"interpolation":"LINEAR",
					"output":46
				}
			]
		},
		{
			"channels":[
				{
					"sampler":0,
					"target":{
						"node":4,
						"path":"translation"
					}
				},
				{
					"sampler":1,
					"target":{
						"node":4,
						"path":"rotation"
					}
				},
				{
					"sampler":2,
					"target":{
						"node":4,
						"path":"scale"
					}
				}
			],
			"name":"Plane.004",
			"samplers":[
				{
					"input":34,
					"interpolation":"LINEAR",
					"output":47
				},
				{
					"input":34,
					"interpolation":"LINEAR",
					"output":48
				},
				{
					"input":34,
					"interpolation":"LINEAR",
					"output":49
				}
			]
		},
		{
			"channels":[
				{
					"sampler":0,
					"target":{
						"node":5,
						"path":"translation"
					}
				},
				{
					"sampler":1,
					"target":{
						"node":5,
						"path":"rotation"
					}
				},
				{
					"sampler":2,
					"target":{
						"node":5,
						"path":"scale"
					}
				}
			],
			"name":"Plane.005",
			"samplers":[
				{
					"input":34,
					"interpolation":"LINEAR",
					"output":50
				},
				{
					"input":34,
					"interpolation":"LINEAR",
					"output":51
				},
				{
					"input":34,
					"interpolation":"LINEAR",
					"output":52
				}
			]
		},
		{
			"channels":[
				{
					"sampler":0,
					"target":{
						"node":6,
						"path":"translation"
					}
				},
				{
					"sampler":1,
					"target":{
						"node":6,
						"path":"rotation"
					}
				},
				{
					"sampler":2,
					"target":{
						"node":6,
						"path":"scale"
					}
				}
			],
			"name":"Plane.006",
			"samplers":[
				{
					"input":34,
					"interpolation":"LINEAR",
					"output":53
				},
				{
					"input":34,
					"interpolation":"LINEAR",
					"output":54
				},
				{
					"input":34,
					"interpolation":"LINEAR",
					"output":55
				}
			]
		},
		{
			"channels":[
				{
					"sampler":0,
					"target":{
						"node":7,
						"path":"translation"
					}
				},
				{
					"sampler":1,
					"target":{
						"node":7,
						"path":"rotation"
					}
				},
				{
					"sampler":2,
					"target":{
						"node":7,
						"path":"scale"
					}
				}
			],
			"name":"Plane.007",
			"samplers":[
				{
					"input":34,
					"interpolation":"LINEAR",
					"output":56
				},
				{
					"input":34,
					"interpolation":"LINEAR",
					"output":57
				},
				{
					"input":34,
					"interpolation":"LINEAR",
					"output":58
				}
			]
		},
		{
			"channels":[
				{
					"sampler":0,
					"target":{
						"node":8,
						"path":"translation"
					}
				},
				{
					"sampler":1,
					"target":{
						"node":8,
						"path":"rotation"
					}
				},
				{
					"sampler":2,
					"target":{
						"node":8,
						"path":"scale"
					}
				}
			],
			"name":"Plane.008",
			"samplers":[
				{
					"input":34,
					"interpolation":"LINEAR",
					"output":59
				},
				{
					"input":34,
					"interpolation":"LINEAR",
					"output":60
				},
				{
					"input":34,
					"interpolation":"LINEAR",
					"output":61
				}
			]
		},
		{
			"channels":[
				{
					"sampler":0,
					"target":{
						"node":9,
						"path":"translation"
					}
				},
				{
					"sampler":1,
					"target":{
						"node":9,
						"path":"rotation"
					}
				},
				{
					"sampler":2,
					"target":{
						"node":9,
						"path":"scale"
					}
				}
			],
			"name":"Plane.009",
			"samplers":[
				{
					"input":34,
					"interpolation":"LINEAR",
					"output":62
				},
				{
					"input":34,
					"interpolation":"LINEAR",
					"output":63
				},
				{
					"input":34,
					"interpolation":"LINEAR",
					"output":64
				}
			]
		},
		{
			"channels":[
				{
					"sampler":0,
					"target":{
						"node":10,
						"path":"translation"
					}
				},
				{
					"sampler":1,
					"target":{
						"node":10,
						"path":"rotation"
					}
				},
				{
					"sampler":2,
					"target":{
						"node":10,
						"path":"scale"
					}
				}
			],
			"name":"Plane.010",
			"samplers":[
				{
					"input":34,
					"interpolation":"LINEAR",
					"output":65
				},
				{
					"input":34,
					"interpolation":"LINEAR",
					"output":66
				},
				{
					"input":34,
					"interpolation":"LINEAR",
					"output":67
				}
			]
		}
	],
	"meshes":[
		{
			"name":"Plane.001",
			"primitives":[
				{
					"attributes":{
						"POSITION":0,
						"TEXCOORD_0":1,
						"NORMAL":2
					},
					"indices":3
				}
			]
		},
		{
			"name":"Plane.002",
			"primitives":[
				{
					"attributes":{
						"POSITION":4,
						"TEXCOORD_0":5,
						"NORMAL":6
					},
					"indices":3
				}
			]
		},
		{
			"name":"Plane.003",
			"primitives":[
				{
					"attributes":{
						"POSITION":7,
						"TEXCOORD_0":8,
						"NORMAL":9
					},
					"indices":3
				}
			]
		},
		{
			"name":"Plane.004",
			"primitives":[
				{
					"attributes":{
						"POSITION":10,
						"TEXCOORD_0":11,
						"NORMAL":12
					},
					"indices":3
				}
			]
		},
		{
			"name":"Plane.005",
			"primitives":[
				{
					"attributes":{
						"POSITION":13,
						"TEXCOORD_0":14,
						"NORMAL":15
					},
					"indices":3
				}
			]
		},
		{
			"name":"Plane.006",
			"primitives":[
				{
					"attributes":{
						"POSITION":16,
						"TEXCOORD_0":17,
						"NORMAL":18
					},
					"indices":3
				}
			]
		},
		{
			"name":"Plane.007",
			"primitives":[
				{
					"attributes":{
						"POSITION":19,
						"TEXCOORD_0":20,
						"NORMAL":21
					},
					"indices":3
				}
			]
		},
		{
			"name":"Plane.008",
			"primitives":[
				{
					"attributes":{
						"POSITION":22,
						"TEXCOORD_0":23,
						"NORMAL":24
					},
					"indices":3
				}
			]
		},
		{
			"name":"Plane.009",
			"primitives":[
				{
					"attributes":{
						"POSITION":25,
						"TEXCOORD_0":26,
						"NORMAL":27
					},
					"indices":3
				}
			]
		},
		{
			"name":"Plane.010",
			"primitives":[
				{
					"attributes":{
						"POSITION":28,
						"TEXCOORD_0":29,
						"NORMAL":30
					},
					"indices":3
				}
			]
		},
		{
			"name":"Plane.011",
			"primitives":[
				{
					"attributes":{
						"POSITION":31,
						"TEXCOORD_0":32,
						"NORMAL":33
					},
					"indices":3
				}
			]
		}
	],
	"accessors":[
		{
			"bufferView":0,
			"componentType":5126,
			"count":4,
			"max":[
				1,
				0,
				1
			],
			"min":[
				-1,
				0,
				-1
			],
			"type":"VEC3"
		},
		{
			"bufferView":1,
			"componentType":5126,
			"count":4,
			"type":"VEC2"
		},
		{
			"bufferView":2,
			"componentType":5126,
			"count":4,
			"type":"VEC3"
		},
		{
			"bufferView":3,
			"componentType":5123,
			"count":6,
			"type":"SCALAR"
		},
		{
			"bufferView":4,
			"componentType":5126,
			"count":4,
			"max":[
				1,
				0,
				1
			],
			"min":[
				-1,
				0,
				-1
			],
			"type":"VEC3"
		},
		{
			"bufferView":5,
			"componentType":5126,
			"count":4,
			"type":"VEC2"
		},
		{
			"bufferView":6,
			"componentType":5126,
			"count":4,
			"type":"VEC3"
		},
		{
			"bufferView":7,
			"componentType":5126,
			"count":4,
			"max":[
				1,
				0,
				1
			],
			"min":[
				-1,
				0,
				-1
			],
			"type":"VEC3"
		},
		{
			"bufferView":8,
			"componentType":5126,
			"count":4,
			"type":"VEC2"
		},
		{
			"bufferView":9,
			"componentType":5126,
			"count":4,
			"type":"VEC3"
		},
		{
			"bufferView":10,
			"componentType":5126,
			"count":4,
			"max":[
				1,
				0,
				1
			],
			"min":[
				-1,
				0,
				-1
			],
			"type":"VEC3"
		},
		{
			"bufferView":11,
			"componentType":5126,
			"count":4,
			"type":"VEC2"
		},
		{
			"bufferView":12,
			"componentType":5126,
			"count":4,
			"type":"VEC3"
		},
		{
			"bufferView":13,
			"componentType":5126,
			"count":4,
			"max":[
				1,
				0,
				1
			],
			"min":[
				-1,
				0,
				-1
			],
			"type":"VEC3"
		},
		{
			"bufferView":14,
			"componentType":5126,
			"count":4,
			"type":"VEC2"
		},
		{
			"bufferView":15,
			"componentType":5126,
			"count":4,
			"type":"VEC3"
		},
		{
			"bufferView":16,
			"componentType":5126,
			"count":4,
			"max":[
				1,
				0,
				1
			],
			"min":[
				-1,
				0,
				-1
			],
			"type":"VEC3"
		},
		{
			"bufferView":17,
			"componentType":5126,
			"count":4,
			"type":"VEC2"
		},
		{
			"bufferView":18,
			"componentType":5126,
			"count":4,
			"type":"VEC3"
		},
		{
			"bufferView":19,
			"componentType":5126,
			"count":4,
			"max":[
				1,
				0,
				1
			],
			"min":[
				-1,
				0,
				-1
			],
			"type":"VEC3"
		},
		{
			"bufferView":20,
			"componentType":5126,
			"count":4,
			"type":"VEC2"
		},
		{
			"bufferView":21,
			"componentType":5126,
			"count":4,
			"type":"VEC3"
		},
		{
			"bufferView":22,
			"componentType":5126,
			"count":4,
			"max":[
				1,
				0,
				1
			],
			"min":[
				-1,
				0,
				-1
			],
			"type":"VEC3"
		},
		{
			"bufferView":23,
			"componentType":5126,
			"count":4,
			"type":"VEC2"
		},
		{
			"bufferView":24,
			"componentType":5126,
			"count":4,
			"type":"VEC3"
		},
		{
			"bufferView":25,
			"componentType":5126,
			"count":4,
			"max":[
				1,
				0,
				1
			],
			"min":[
				-1,
				0,
				-1
			],
			"type":"VEC3"
		},
		{
			"bufferView":26,
			"componentType":5126,
			"count":4,
			"type":"VEC2"
		},
		{
			"bufferView":27,
			"componentType":5126,
			"count":4,
			"type":"VEC3"
		},
		{
			"bufferView":28,
			"componentType":5126,
			"count":4,
			"max":[
				1,
				0,
				1
			],
			"min":[
				-1,
				0,
				-1
			],
			"type":"VEC3"
		},
		{
			"bufferView":29,
			"componentType":5126,
			"count":4,
			"type":"VEC2"
		},
		{
			"bufferView":30,
			"componentType":5126,
			"count":4,
			"type":"VEC3"
		},
		{
			"bufferView":31,
			"componentType":5126,
			"count":4,
			"max":[
				1,
				0,
				1
			],
			"min":[
				-1,
				0,
				-1
			],
			"type":"VEC3"
		},
		{
			"bufferView":32,
			"componentType":5126,
			"count":4,
			"type":"VEC2"
		},
		{
			"bufferView":33,
			"componentType":5126,
			"count":4,
			"type":"VEC3"
		},
		{
			"bufferView":34,
			"componentType":5126,
			"count":2,
			"max":[
				0.06666666666666667
			],
			"min":[
				0.03333333333333333
			],
			"type":"SCALAR"
		},
		{
			"bufferView":35,
			"componentType":5126,
			"count":2,
			"type":"VEC3"
		},
		{
			"bufferView":36,
			"componentType":5126,
			"count":2,
			"type":"VEC4"
		},
		{
			"bufferView":37,
			"componentType":5126,
			"count":2,
			"type":"VEC3"
		},
		{
			"bufferView":38,
			"componentType":5126,
			"count":2,
			"type":"VEC3"
		},
		{
			"bufferView":39,
			"componentType":5126,
			"count":2,
			"type":"VEC4"
		},
		{
			"bufferView":40,
			"componentType":5126,
			"count":2,
			"type":"VEC3"
		},
		{
			"bufferView":41,
			"componentType":5126,
			"count":2,
			"type":"VEC3"
		},
		{
			"bufferView":42,
			"componentType":5126,
			"count":2,
			"type":"VEC4"
		},
		{
			"bufferView":43,
			"componentType":5126,
			"count":2,
			"type":"VEC3"
		},
		{
			"bufferView":44,
			"componentType":5126,
			"count":2,
			"type":"VEC3"
		},
		{
			"bufferView":45,
			"componentType":5126,
			"count":2,
			"type":"VEC4"
		},
		{
			"bufferView":46,
			"componentType":5126,
			"count":2,
			"type":"VEC3"
		},
		{
			"bufferView":47,
			"componentType":5126,
			"count":2,
			"type":"VEC3"
		},
		{
			"bufferView":48,
			"componentType":5126,
			"count":2,
			"type":"VEC4"
		},
		{
			"bufferView":49,
			"componentType":5126,
			"count":2,
			"type":"VEC3"
		},
		{
			"bufferView":50,
			"componentType":5126,
			"count":2,
			"type":"VEC3"
		},
		{
			"bufferView":51,
			"componentType":5126,
			"count":2,
			"type":"VEC4"
		},
		{
			"bufferView":52,
			"componentType":5126,
			"count":2,
			"type":"VEC3"
		},
		{
			"bufferView":53,
			"componentType":5126,
			"count":2,
			"type":"VEC3"
		},
		{
			"bufferView":54,
			"componentType":5126,
			"count":2,
			"type":"VEC4"
		},
		{
			"bufferView":55,
			"componentType":5126,
			"count":2,
			"type":"VEC3"
		},
		{
			"bufferView":56,
			"componentType":5126,
			"count":2,
			"type":"VEC3"
		},
		{
			"bufferView":57,
			"componentType":5126,
			"count":2,
			"type":"VEC4"
		},
		{
			"bufferView":58,
			"componentType":5126,
			"count":2,
			"type":"VEC3"
		},
		{
			"bufferView":59,
			"componentType":5126,
			"count":2,
			"type":"VEC3"
		},
		{
			"bufferView":60,
			"componentType":5126,
			"count":2,
			"type":"VEC4"
		},
		{
			"bufferView":61,
			"componentType":5126,
			"count":2,
			"type":"VEC3"
		},
		{
			"bufferView":62,
			"componentType":5126,
			"count":2,
			"type":"VEC3"
		},
		{
			"bufferView":63,
			"componentType":5126,
			"count":2,
			"type":"VEC4"
		},
		{
			"bufferView":64,
			"componentType":5126,
			"count":2,
			"type":"VEC3"
		},
		{
			"bufferView":65,
			"componentType":5126,
			"count":2,
			"type":"VEC3"
		},
		{
			"bufferView":66,
			"componentType":5126,
			"count":2,
			"type":"VEC4"
		},
		{
			"bufferView":67,
			"componentType":5126,
			"count":2,
			"type":"VEC3"
		}
	],
	"bufferViews":[
		{
			"buffer":0,
			"byteLength":48,
			"byteOffset":0,
			"target":34962
		},
		{
			"buffer":0,
			"byteLength":32,
			"byteOffset":48,
			"target":34962
		},
		{
			"buffer":0,
			"byteLength":48,
			"byteOffset":80,
			"target":34962
		},
		{
			"buffer":0,
			"byteLength":12,
			"byteOffset":128,
			"target":34963
		},
		{
			"buffer":0,
			"byteLength":48,
			"byteOffset":140,
			"target":34962
		},
		{
			"buffer":0,
			"byteLength":32,
			"byteOffset":188,
			"target":34962
		},
		{
			"buffer":0,
			"byteLength":48,
			"byteOffset":220,
			"target":34962
		},
		{
			"buffer":0,
			"byteLength":48,
			"byteOffset":268,
			"target":34962
		},
		{
			"buffer":0,
			"byteLength":32,
			"byteOffset":316,
			"target":34962
		},
		{
			"buffer":0,
			"byteLength":48,
			"byteOffset":348,
			"target":34962
		},
		{
			"buffer":0,
			"byteLength":48,
			"byteOffset":396,
			"target":34962
		},
		{
			"buffer":0,
			"byteLength":32,
			"byteOffset":444,
			"target":34962
		},
		{
			"buffer":0,
			"byteLength":48,
			"byteOffset":476,
			"target":34962
		},
		{
			"buffer":0,
			"byteLength":48,
			"byteOffset":524,
			"target":34962
		},
		{
			"buffer":0,
			"byteLength":32,
			"byteOffset":572,
			"target":34962
		},
		{
			"buffer":0,
			"byteLength":48,
			"byteOffset":604,
			"target":34962
		},
		{
			"buffer":0,
			"byteLength":48,
			"byteOffset":652,
			"target":34962
		},
		{
			"buffer":0,
			"byteLength":32,
			"byteOffset":700,
			"target":34962
		},
		{
			"buffer":0,
			"byteLength":48,
			"byteOffset":732,
			"target":34962
		},
		{
			"buffer":0,
			"byteLength":48,
			"byteOffset":780,
			"target":34962
		},
		{
			"buffer":0,
			"byteLength":32,
			"byteOffset":828,
			"target":34962
		},
		{
			"buffer":0,
			"byteLength":48,
			"byteOffset":860,
			"target":34962
		},
		{
			"buffer":0,
			"byteLength":48,
			"byteOffset":908,
			"target":34962
		},
		{
			"buffer":0,
			"byteLength":32,
			"byteOffset":956,
			"target":34962
		},
		{
			"buffer":0,
			"byteLength":48,
			"byteOffset":988,
			"target":34962
		},
		{
			"buffer":0,
			"byteLength":48,
			"byteOffset":1036,
			"target":34962
		},
		{
			"buffer":0,
			"byteLength":32,
			"byteOffset":1084,
			"target":34962
		},
		{
			"buffer":0,
			"byteLength":48,
			"byteOffset":1116,
			"target":34962
		},
		{
			"buffer":0,
			"byteLength":48,
			"byteOffset":1164,
			"target":34962
		},
		{
			"buffer":0,
			"byteLength":32,
			"byteOffset":1212,
			"target":34962
		},
		{
			"buffer":0,
			"byteLength":48,
			"byteOffset":1244,
			"target":34962
		},
		{
			"buffer":0,
			"byteLength":48,
			"byteOffset":1292,
			"target":34962
		},
		{
			"buffer":0,
			"byteLength":32,
			"byteOffset":1340,
			"target":34962
		},
		{
			"buffer":0,
			"byteLength":48,
			"byteOffset":1372,
			"target":34962
		},
		{
			"buffer":0,
			"byteLength":8,
			"byteOffset":1420
		},
		{
			"buffer":0,
			"byteLength":24,
			"byteOffset":1428
		},
		{
			"buffer":0,
			"byteLength":32,
			"byteOffset":1452
		},
		{
			"buffer":0,
			"byteLength":24,
			"byteOffset":1484
		},
		{
			"buffer":0,
			"byteLength":24,
			"byteOffset":1508
		},
		{
			"buffer":0,
			"byteLength":32,
			"byteOffset":1532
		},
		{
			"buffer":0,
			"byteLength":24,
			"byteOffset":1564
		},
		{
			"buffer":0,
			"byteLength":24,
			"byteOffset":1588
		},
		{
			"buffer":0,
			"byteLength":32,
			"byteOffset":1612
		},
		{
			"buffer":0,
			"byteLength":24,
			"byteOffset":1644
		},
		{
			"buffer":0,
			"byteLength":24,
			"byteOffset":1668
		},
		{
			"buffer":0,
			"byteLength":32,
			"byteOffset":1692
		},
		{
			"buffer":0,
			"byteLength":24,
			"byteOffset":1724
		},
		{
			"buffer":0,
			"byteLength":24,
			"byteOffset":1748
		},
		{
			"buffer":0,
			"byteLength":32,
			"byteOffset":1772
		},
		{
			"buffer":0,
			"byteLength":24,
			"byteOffset":1804
		},
		{
			"buffer":0,
			"byteLength":24,
			"byteOffset":1828
		},
		{
			"buffer":0,
			"byteLength":32,
			"byteOffset":1852
		},
		{
			"buffer":0,
			"byteLength":24,
			"byteOffset":1884
		},
		{
			"buffer":0,
			"byteLength":24,
			"byteOffset":1908
		},
		{
			"buffer":0,
			"byteLength":32,
			"byteOffset":1932
		},
		{
			"buffer":0,
			"byteLength":24,
			"byteOffset":1964
		},
		{
			"buffer":0,
			"byteLength":24,
			"byteOffset":1988
		},
		{
			"buffer":0,
			"byteLength":32,
			"byteOffset":2012
		},
		{
			"buffer":0,
			"byteLength":24,
			"byteOffset":2044
		},
		{
			"buffer":0,
			"byteLength":24,
			"byteOffset":2068
		},
		{
			"buffer":0,
			"byteLength":32,
			"byteOffset":2092
		},
		{
			"buffer":0,
			"byteLength":24,
			"byteOffset":2124
		},
		{
			"buffer":0,
			"byteLength":24,
			"byteOffset":2148
		},
		{
			"buffer":0,
			"byteLength":32,
			"byteOffset":2172
		},
		{
			"buffer":0,
			"byteLength":24,
			"byteOffset":2204
		},
		{
			"buffer":0,
			"byteLength":24,
			"byteOffset":2228
		},
		{
			"buffer":0,
			"byteLength":32,
			"byteOffset":2252
		},
		{
			"buffer":0,
			"byteLength":24,
			"byteOffset":2284
		}
	],
	"buffers":[
		{
			"byteLength":2308,
			"uri":"Hexagons.bin"
		}
	]
}
