{
	"asset":{
		"generator":"Khronos glTF Blender I/O v3.5.30",
		"version":"2.0"
	},
	"extensionsUsed":[
		"KHR_materials_specular",
		"KHR_materials_ior"
	],
	"scene":0,
	"scenes":[
		{
			"name":"Scene",
			"nodes":[
				0
			]
		}
	],
	"nodes":[
		{
			"mesh":0,
			"name":"Structural asset"
		}
	],
	"animations":[
		{
			"channels":[
				{
					"sampler":0,
					"target":{
						"node":0,
						"path":"translation"
					}
				},
				{
					"sampler":1,
					"target":{
						"node":0,
						"path":"rotation"
					}
				},
				{
					"sampler":2,
					"target":{
						"node":0,
						"path":"scale"
					}
				}
			],
			"name":"Structural asset",
			"samplers":[
				{
					"input":4,
					"interpolation":"LINEAR",
					"output":5
				},
				{
					"input":4,
					"interpolation":"LINEAR",
					"output":6
				},
				{
					"input":4,
					"interpolation":"LINEAR",
					"output":7
				}
			]
		}
	],
	"materials":[
		{
			"doubleSided":true,
			"extensions":{
				"KHR_materials_specular":{
					"specularColorFactor":[
						0,
						0,
						0
					]
				},
				"KHR_materials_ior":{
					"ior":1.4500000476837158
				}
			},
			"name":"Suelo_Material",
			"normalTexture":{
				"index":0,
				"scale":2
			},
			"pbrMetallicRoughness":{
				"baseColorTexture":{
					"index":1
				},
				"metallicRoughnessTexture":{
					"index":2
				}
			}
		}
	],
	"meshes":[
		{
			"name":"Structural asset",
			"primitives":[
				{
					"attributes":{
						"POSITION":0,
						"TEXCOORD_0":1,
						"NORMAL":2
					},
					"indices":3,
					"material":0
				}
			]
		}
	],
	"textures":[
		{
			"sampler":0,
			"source":0
		},
		{
			"sampler":0,
			"source":1
		},
		{
			"sampler":0,
			"source":2
		}
	],
	"images":[
		{
			"bufferView":4,
			"mimeType":"image/png",
			"name":"untitled_STRUCRUTAL_Material_Normal"
		},
		{
			"bufferView":5,
			"mimeType":"image/png",
			"name":"untitled_STRUCRUTAL_Material_BaseColor"
		},
		{
			"bufferView":6,
			"mimeType":"image/png",
			"name":"untitled_STRUCRUTAL_Material_Metallic.png-untitled_STRUCRUTAL_Material_Roughness.png"
		}
	],
	"accessors":[
		{
			"bufferView":0,
			"componentType":5126,
			"count":2916,
			"max":[
				121.82062530517578,
				1.545760824228637e-06,
				122.46517181396484
			],
			"min":[
				-121.82062530517578,
				-1.4934280443412717e-06,
				-121.17607116699219
			],
			"type":"VEC3"
		},
		{
			"bufferView":1,
			"componentType":5126,
			"count":2916,
			"type":"VEC2"
		},
		{
			"bufferView":2,
			"componentType":5126,
			"count":2916,
			"type":"VEC3"
		},
		{
			"bufferView":3,
			"componentType":5123,
			"count":4374,
			"type":"SCALAR"
		},
		{
			"bufferView":7,
			"componentType":5126,
			"count":2,
			"max":[
				0.06666666666666667
			],
			"min":[
				0.03333333333333333
			],
			"type":"SCALAR"
		},
		{
			"bufferView":8,
			"componentType":5126,
			"count":2,
			"type":"VEC3"
		},
		{
			"bufferView":9,
			"componentType":5126,
			"count":2,
			"type":"VEC4"
		},
		{
			"bufferView":10,
			"componentType":5126,
			"count":2,
			"type":"VEC3"
		}
	],
	"bufferViews":[
		{
			"buffer":0,
			"byteLength":34992,
			"byteOffset":0,
			"target":34962
		},
		{
			"buffer":0,
			"byteLength":23328,
			"byteOffset":34992,
			"target":34962
		},
		{
			"buffer":0,
			"byteLength":34992,
			"byteOffset":58320,
			"target":34962
		},
		{
			"buffer":0,
			"byteLength":8748,
			"byteOffset":93312,
			"target":34963
		},
		{
			"buffer":0,
			"byteLength":413560,
			"byteOffset":102060
		},
		{
			"buffer":0,
			"byteLength":90166,
			"byteOffset":515620
		},
		{
			"buffer":0,
			"byteLength":44979,
			"byteOffset":605788
		},
		{
			"buffer":0,
			"byteLength":8,
			"byteOffset":650768
		},
		{
			"buffer":0,
			"byteLength":24,
			"byteOffset":650776
		},
		{
			"buffer":0,
			"byteLength":32,
			"byteOffset":650800
		},
		{
			"buffer":0,
			"byteLength":24,
			"byteOffset":650832
		}
	],
	"samplers":[
		{
			"magFilter":9729,
			"minFilter":9987
		}
	],
	"buffers":[
		{
			"byteLength":650856,
			"uri":"data:application/octet-stream;base64,"
		}
	]
}
